GRF
version=1
nRows=24
nColumns=19
inDegrees=no
endheader
time	ground_force_vx	ground_force_vy	ground_force_vz	ground_force_px	ground_force_py	ground_force_pz	ground_torque_x	ground_torque_y	ground_torque_z	1_ground_force_vx	1_ground_force_vy	1_ground_force_vz	1_ground_force_px	1_ground_force_py	1_ground_force_pz	1_ground_torque_x	1_ground_torque_y	1_ground_torque_z
      2.83500000	    -40.03655730	    357.85018694	      7.32709469	      0.16238823	     -0.00000000	      0.01054371	      0.00000000	      0.37089834	     -0.00000000	     40.55645300	    349.48582525	     -6.49283820	     -0.23893745	      0.00000000	      0.06352914	      0.00000000	      1.07087246	     -0.00000000
      2.83600000	    -40.02875605	    357.85766977	      7.33552314	      0.16237821	     -0.00000000	      0.01052118	      0.00000000	      0.37431857	     -0.00000000	     40.55586538	    349.47315289	     -6.49915553	     -0.23892778	      0.00000000	      0.06352883	      0.00000000	      1.07132979	     -0.00000000
      2.83700000	    -40.02063290	    357.86529059	      7.34423609	      0.16236848	     -0.00000000	      0.01049876	      0.00000000	      0.37756201	     -0.00000000	     40.55580876	    349.45975014	     -6.50540539	     -0.23891795	      0.00000000	      0.06352842	      0.00000000	      1.07178928	     -0.00000000
      2.83800000	    -40.01220899	    357.87306752	      7.35323678	      0.16235903	     -0.00000000	      0.01047646	      0.00000000	      0.38062306	     -0.00000000	     40.55626804	    349.44562037	     -6.51159135	     -0.23890797	      0.00000000	      0.06352791	      0.00000000	      1.07225757	     -0.00000000
      2.83900000	    -40.00350866	    357.88101918	      7.36252692	      0.16234987	     -0.00000000	      0.01045426	      0.00000000	      0.38349653	     -0.00000000	     40.55722507	    349.43077159	     -6.51771617	     -0.23889786	      0.00000000	      0.06352731	      0.00000000	      1.07274138	     -0.00000000
      2.84000000	    -39.99455933	    357.88916466	      7.37210669	      0.16234099	     -0.00000000	      0.01043218	      0.00000000	      0.38617769	     -0.00000000	     40.55865888	    349.41521654	     -6.52378178	     -0.23888765	      0.00000000	      0.06352661	      0.00000000	      1.07324746	     -0.00000000
      2.84100000	    -39.98539129	    357.89752332	      7.38197463	      0.16233239	     -0.00000000	      0.01041019	      0.00000000	      0.38866227	     -0.00000000	     40.56054588	    349.39897270	     -6.52978917	     -0.23887735	      0.00000000	      0.06352579	      0.00000000	      1.07378246	     -0.00000000
      2.84200000	    -39.97603752	    357.90611467	      7.39212765	      0.16232406	     -0.00000000	      0.01038830	      0.00000000	      0.39094652	     -0.00000000	     40.56286005	    349.38206227	     -6.53573834	     -0.23886699	      0.00000000	      0.06352486	      0.00000000	      1.07435292	     -0.00000000
      2.84300000	    -39.96653342	    357.91495824	      7.40256094	      0.16231599	     -0.00000000	      0.01036649	      0.00000000	      0.39302726	     -0.00000000	     40.56557325	    349.36451213	     -6.54162826	     -0.23885657	      0.00000000	      0.06352380	      0.00000000	      1.07496511	     -0.00000000
      2.84400000	    -39.95691655	    357.92407341	      7.41326800	      0.16230818	     -0.00000000	      0.01034475	      0.00000000	      0.39490185	     -0.00000000	     40.56865540	    349.34635367	     -6.54745682	     -0.23884614	      0.00000000	      0.06352261	      0.00000000	      1.07562499	     -0.00000000
      2.84500000	    -39.94722635	    357.93347924	      7.42424066	      0.16230062	     -0.00000000	      0.01032307	      0.00000000	      0.39656826	     -0.00000000	     40.57207477	    349.32762263	     -6.55322084	     -0.23883569	      0.00000000	      0.06352125	      0.00000000	      1.07633812	     -0.00000000
      2.84600000	    -39.93750382	    357.94319434	      7.43546905	      0.16229329	     -0.00000000	      0.01030143	      0.00000000	      0.39802510	     -0.00000000	     40.57579821	    349.30835888	     -6.55891606	     -0.23882527	      0.00000000	      0.06351973	      0.00000000	      1.07710956	     -0.00000000
      2.84700000	    -39.92779118	    357.95323666	      7.44694167	      0.16228619	     -0.00000000	      0.01027981	      0.00000000	      0.39927159	     -0.00000000	     40.57979144	    349.28860613	     -6.56453714	     -0.23881488	      0.00000000	      0.06351803	      0.00000000	      1.07794382	     -0.00000000
      2.84800000	    -39.91813155	    357.96362336	      7.45864546	      0.16227930	     -0.00000000	      0.01025820	      0.00000000	      0.40030763	     -0.00000000	     40.58401926	    349.26841162	     -6.57007770	     -0.23880455	      0.00000000	      0.06351612	      0.00000000	      1.07884479	     -0.00000000
      2.84900000	    -39.90856858	    357.97437059	      7.47056581	      0.16227262	     -0.00000000	      0.01023657	      0.00000000	      0.40113380	     -0.00000000	     40.58844581	    349.24782575	     -6.57553036	     -0.23879430	      0.00000000	      0.06351399	      0.00000000	      1.07981562	     -0.00000000
      2.85000000	    -39.89914610	    357.98549339	      7.48268669	      0.16226612	     -0.00000000	      0.01021490	      0.00000000	      0.40175137	     -0.00000000	     40.59303481	    349.22690166	     -6.58088679	     -0.23878415	      0.00000000	      0.06351163	      0.00000000	      1.08085876	     -0.00000000
      2.85100000	    -39.88990779	    357.99700547	      7.49499075	      0.16225980	     -0.00000000	      0.01019317	      0.00000000	      0.40216228	     -0.00000000	     40.59774977	    349.20569484	     -6.58613781	     -0.23877411	      0.00000000	      0.06350900	      0.00000000	      1.08197578	     -0.00000000
      2.85200000	    -39.88089679	    358.00891912	      7.50745935	      0.16225365	     -0.00000000	      0.01017136	      0.00000000	      0.40236922	     -0.00000000	     40.60255420	    349.18426267	     -6.59127342	     -0.23876422	      0.00000000	      0.06350610	      0.00000000	      1.08316745	     -0.00000000
      2.85300000	    -39.87215537	    358.02124497	      7.52007279	      0.16224765	     -0.00000000	      0.01014945	      0.00000000	      0.40237554	     -0.00000000	     40.60741185	    349.16266390	     -6.59628298	     -0.23875448	      0.00000000	      0.06350291	      0.00000000	      1.08443362	     -0.00000000
      2.85400000	    -39.86372462	    358.03399196	      7.53281033	      0.16224178	     -0.00000000	      0.01012741	      0.00000000	      0.40218533	     -0.00000000	     40.61228683	    349.14095820	     -6.60115522	     -0.23874492	      0.00000000	      0.06349941	      0.00000000	      1.08577322	     -0.00000000
      2.85500000	    -39.85564409	    358.04716713	      7.54565041	      0.16223604	     -0.00000000	      0.01010523	      0.00000000	      0.40180339	     -0.00000000	     40.61714382	    349.11920567	     -6.60587844	     -0.23873555	      0.00000000	      0.06349559	      0.00000000	      1.08718426	     -0.00000000
      2.85600000	    -39.84795153	    358.06077557	      7.55857072	      0.16223042	     -0.00000000	      0.01008288	      0.00000000	      0.40123519	     -0.00000000	     40.62194820	    349.09746632	     -6.61044057	     -0.23872640	      0.00000000	      0.06349143	      0.00000000	      1.08866380	     -0.00000000
      2.85700000	    -39.84068260	    358.07482030	      7.57154841	      0.16222489	     -0.00000000	      0.01006034	      0.00000000	      0.40048693	     -0.00000000	     40.62666623	    349.07579958	     -6.61482936	     -0.23871747	      0.00000000	      0.06348692	      0.00000000	      1.09020799	     -0.00000000
      2.85800000	    -39.83387059	    358.08930218	      7.58456021	      0.16221946	     -0.00000000	      0.01003759	      0.00000000	      0.39956548	     -0.00000000	     40.63126509	    349.05426383	     -6.61903247	     -0.23870880	      0.00000000	      0.06348206	      0.00000000	      1.09181205	     -0.00000000
